<mxfile host="app.diagrams.net" modified="2023-09-19T11:54:18.686Z" agent="Mozilla/5.0 (Windows NT 10.0; Win64; x64) AppleWebKit/537.36 (KHTML, like Gecko) Chrome/116.0.0.0 Safari/537.36" etag="5z5k6U2wxeL3z_-0auBP" version="21.7.5" type="device">
  <diagram id="C5RBs43oDa-KdzZeNtuy" name="Page-1">
    <mxGraphModel dx="2442" dy="911" grid="0" gridSize="10" guides="1" tooltips="1" connect="0" arrows="0" fold="1" page="1" pageScale="1" pageWidth="827" pageHeight="1169" background="none" math="0" shadow="0">
      <root>
        <mxCell id="WIyWlLk6GJQsqaUBKTNV-0" />
        <mxCell id="WIyWlLk6GJQsqaUBKTNV-1" parent="WIyWlLk6GJQsqaUBKTNV-0" />
        <mxCell id="kCNPVURfCYWpfMIY_Az6-123" value="" style="group" vertex="1" connectable="0" parent="WIyWlLk6GJQsqaUBKTNV-1">
          <mxGeometry x="96" y="325.5" width="146" height="148" as="geometry" />
        </mxCell>
        <mxCell id="kCNPVURfCYWpfMIY_Az6-98" value="" style="whiteSpace=wrap;html=1;aspect=fixed;fontSize=16;container=0;" vertex="1" parent="kCNPVURfCYWpfMIY_Az6-123">
          <mxGeometry width="146" height="146" as="geometry" />
        </mxCell>
        <mxCell id="kCNPVURfCYWpfMIY_Az6-99" value="" style="endArrow=none;html=1;rounded=0;fontSize=12;startSize=8;endSize=8;curved=1;exitX=0.002;exitY=0.166;exitDx=0;exitDy=0;exitPerimeter=0;entryX=0.998;entryY=0.166;entryDx=0;entryDy=0;entryPerimeter=0;" edge="1" parent="kCNPVURfCYWpfMIY_Az6-123" source="kCNPVURfCYWpfMIY_Az6-98" target="kCNPVURfCYWpfMIY_Az6-98">
          <mxGeometry width="50" height="50" relative="1" as="geometry">
            <mxPoint x="74" y="127" as="sourcePoint" />
            <mxPoint x="147" y="24" as="targetPoint" />
          </mxGeometry>
        </mxCell>
        <mxCell id="kCNPVURfCYWpfMIY_Az6-102" value="MAGAZIN" style="text;strokeColor=none;fillColor=none;html=1;align=center;verticalAlign=middle;whiteSpace=wrap;rounded=0;fontSize=16;container=0;" vertex="1" parent="kCNPVURfCYWpfMIY_Az6-123">
          <mxGeometry x="50" y="3" width="41" height="15" as="geometry" />
        </mxCell>
        <mxCell id="kCNPVURfCYWpfMIY_Az6-111" value="&lt;font style=&quot;font-size: 12px;&quot;&gt;id_magazin&lt;/font&gt;" style="text;html=1;strokeColor=none;fillColor=none;align=center;verticalAlign=middle;whiteSpace=wrap;rounded=0;fontSize=16;" vertex="1" parent="kCNPVURfCYWpfMIY_Az6-123">
          <mxGeometry x="46" y="28" width="49" height="19" as="geometry" />
        </mxCell>
        <mxCell id="kCNPVURfCYWpfMIY_Az6-113" value="&lt;span style=&quot;font-size: 12px;&quot;&gt;nume_magazin&lt;/span&gt;" style="text;html=1;strokeColor=none;fillColor=none;align=center;verticalAlign=middle;whiteSpace=wrap;rounded=0;fontSize=16;" vertex="1" parent="kCNPVURfCYWpfMIY_Az6-123">
          <mxGeometry x="48.5" y="47" width="49" height="19" as="geometry" />
        </mxCell>
        <mxCell id="kCNPVURfCYWpfMIY_Az6-114" value="&lt;font style=&quot;font-size: 12px;&quot;&gt;telefon&lt;/font&gt;" style="text;html=1;strokeColor=none;fillColor=none;align=center;verticalAlign=middle;whiteSpace=wrap;rounded=0;fontSize=16;" vertex="1" parent="kCNPVURfCYWpfMIY_Az6-123">
          <mxGeometry x="46" y="66" width="49" height="19" as="geometry" />
        </mxCell>
        <mxCell id="kCNPVURfCYWpfMIY_Az6-115" value="&lt;font style=&quot;font-size: 12px;&quot;&gt;profit_lunar&lt;/font&gt;" style="text;html=1;strokeColor=none;fillColor=none;align=center;verticalAlign=middle;whiteSpace=wrap;rounded=0;fontSize=16;" vertex="1" parent="kCNPVURfCYWpfMIY_Az6-123">
          <mxGeometry x="46" y="85" width="49" height="19" as="geometry" />
        </mxCell>
        <mxCell id="kCNPVURfCYWpfMIY_Az6-116" value="&lt;font style=&quot;font-size: 12px;&quot;&gt;id_chirias&lt;/font&gt;" style="text;html=1;strokeColor=none;fillColor=none;align=center;verticalAlign=middle;whiteSpace=wrap;rounded=0;fontSize=16;" vertex="1" parent="kCNPVURfCYWpfMIY_Az6-123">
          <mxGeometry x="46" y="104" width="49" height="19" as="geometry" />
        </mxCell>
        <mxCell id="kCNPVURfCYWpfMIY_Az6-117" value="&lt;span style=&quot;font-size: 12px;&quot;&gt;id_mall&lt;/span&gt;" style="text;html=1;strokeColor=none;fillColor=none;align=center;verticalAlign=middle;whiteSpace=wrap;rounded=0;fontSize=16;" vertex="1" parent="kCNPVURfCYWpfMIY_Az6-123">
          <mxGeometry x="46" y="123" width="49" height="19" as="geometry" />
        </mxCell>
        <mxCell id="kCNPVURfCYWpfMIY_Az6-118" value="&lt;font style=&quot;font-size: 12px;&quot;&gt;&lt;b&gt;PK&lt;/b&gt;&lt;/font&gt;" style="text;html=1;align=center;verticalAlign=middle;resizable=0;points=[];autosize=1;strokeColor=none;fillColor=none;fontSize=16;" vertex="1" parent="kCNPVURfCYWpfMIY_Az6-123">
          <mxGeometry y="22" width="35" height="31" as="geometry" />
        </mxCell>
        <mxCell id="kCNPVURfCYWpfMIY_Az6-120" value="&lt;font style=&quot;font-size: 12px;&quot;&gt;&lt;b&gt;FK&lt;/b&gt;&lt;/font&gt;" style="text;html=1;align=center;verticalAlign=middle;resizable=0;points=[];autosize=1;strokeColor=none;fillColor=none;fontSize=16;" vertex="1" parent="kCNPVURfCYWpfMIY_Az6-123">
          <mxGeometry x="0.5" y="117" width="34" height="31" as="geometry" />
        </mxCell>
        <mxCell id="kCNPVURfCYWpfMIY_Az6-122" value="&lt;font style=&quot;font-size: 12px;&quot;&gt;&lt;b&gt;FK&lt;/b&gt;&lt;/font&gt;" style="text;html=1;align=center;verticalAlign=middle;resizable=0;points=[];autosize=1;strokeColor=none;fillColor=none;fontSize=16;" vertex="1" parent="kCNPVURfCYWpfMIY_Az6-123">
          <mxGeometry x="0.5" y="98" width="34" height="31" as="geometry" />
        </mxCell>
        <mxCell id="kCNPVURfCYWpfMIY_Az6-124" value="" style="group" vertex="1" connectable="0" parent="WIyWlLk6GJQsqaUBKTNV-1">
          <mxGeometry x="-285" y="325.5" width="146" height="148" as="geometry" />
        </mxCell>
        <mxCell id="kCNPVURfCYWpfMIY_Az6-125" value="" style="whiteSpace=wrap;html=1;aspect=fixed;fontSize=16;container=0;" vertex="1" parent="kCNPVURfCYWpfMIY_Az6-124">
          <mxGeometry width="146" height="146" as="geometry" />
        </mxCell>
        <mxCell id="kCNPVURfCYWpfMIY_Az6-126" value="" style="endArrow=none;html=1;rounded=0;fontSize=12;startSize=8;endSize=8;curved=1;exitX=0.002;exitY=0.166;exitDx=0;exitDy=0;exitPerimeter=0;entryX=0.998;entryY=0.166;entryDx=0;entryDy=0;entryPerimeter=0;" edge="1" parent="kCNPVURfCYWpfMIY_Az6-124" source="kCNPVURfCYWpfMIY_Az6-125" target="kCNPVURfCYWpfMIY_Az6-125">
          <mxGeometry width="50" height="50" relative="1" as="geometry">
            <mxPoint x="74" y="127" as="sourcePoint" />
            <mxPoint x="147" y="24" as="targetPoint" />
          </mxGeometry>
        </mxCell>
        <mxCell id="kCNPVURfCYWpfMIY_Az6-127" value="MALL" style="text;strokeColor=none;fillColor=none;html=1;align=center;verticalAlign=middle;whiteSpace=wrap;rounded=0;fontSize=16;container=0;" vertex="1" parent="kCNPVURfCYWpfMIY_Az6-124">
          <mxGeometry x="50" y="3" width="41" height="15" as="geometry" />
        </mxCell>
        <mxCell id="kCNPVURfCYWpfMIY_Az6-128" value="&lt;span style=&quot;font-size: 12px;&quot;&gt;id_mall&lt;/span&gt;" style="text;html=1;strokeColor=none;fillColor=none;align=center;verticalAlign=middle;whiteSpace=wrap;rounded=0;fontSize=16;" vertex="1" parent="kCNPVURfCYWpfMIY_Az6-124">
          <mxGeometry x="46" y="28" width="49" height="19" as="geometry" />
        </mxCell>
        <mxCell id="kCNPVURfCYWpfMIY_Az6-129" value="&lt;span style=&quot;font-size: 12px;&quot;&gt;tara&lt;/span&gt;" style="text;html=1;strokeColor=none;fillColor=none;align=center;verticalAlign=middle;whiteSpace=wrap;rounded=0;fontSize=16;" vertex="1" parent="kCNPVURfCYWpfMIY_Az6-124">
          <mxGeometry x="48.5" y="47" width="49" height="19" as="geometry" />
        </mxCell>
        <mxCell id="kCNPVURfCYWpfMIY_Az6-130" value="&lt;font style=&quot;font-size: 12px;&quot;&gt;nume_mall&lt;/font&gt;" style="text;html=1;strokeColor=none;fillColor=none;align=center;verticalAlign=middle;whiteSpace=wrap;rounded=0;fontSize=16;" vertex="1" parent="kCNPVURfCYWpfMIY_Az6-124">
          <mxGeometry x="46" y="66" width="49" height="19" as="geometry" />
        </mxCell>
        <mxCell id="kCNPVURfCYWpfMIY_Az6-131" value="&lt;font style=&quot;font-size: 12px;&quot;&gt;dimensiune&lt;/font&gt;" style="text;html=1;strokeColor=none;fillColor=none;align=center;verticalAlign=middle;whiteSpace=wrap;rounded=0;fontSize=16;" vertex="1" parent="kCNPVURfCYWpfMIY_Az6-124">
          <mxGeometry x="46" y="85" width="49" height="19" as="geometry" />
        </mxCell>
        <mxCell id="kCNPVURfCYWpfMIY_Az6-132" value="&lt;font style=&quot;font-size: 12px;&quot;&gt;id_firma&lt;/font&gt;" style="text;html=1;strokeColor=none;fillColor=none;align=center;verticalAlign=middle;whiteSpace=wrap;rounded=0;fontSize=16;" vertex="1" parent="kCNPVURfCYWpfMIY_Az6-124">
          <mxGeometry x="46" y="104" width="49" height="19" as="geometry" />
        </mxCell>
        <mxCell id="kCNPVURfCYWpfMIY_Az6-133" value="&lt;span style=&quot;font-size: 12px;&quot;&gt;id_promovare&lt;/span&gt;" style="text;html=1;strokeColor=none;fillColor=none;align=center;verticalAlign=middle;whiteSpace=wrap;rounded=0;fontSize=16;" vertex="1" parent="kCNPVURfCYWpfMIY_Az6-124">
          <mxGeometry x="46" y="123" width="49" height="19" as="geometry" />
        </mxCell>
        <mxCell id="kCNPVURfCYWpfMIY_Az6-134" value="&lt;font style=&quot;font-size: 12px;&quot;&gt;&lt;b&gt;PK&lt;/b&gt;&lt;/font&gt;" style="text;html=1;align=center;verticalAlign=middle;resizable=0;points=[];autosize=1;strokeColor=none;fillColor=none;fontSize=16;" vertex="1" parent="kCNPVURfCYWpfMIY_Az6-124">
          <mxGeometry y="22" width="35" height="31" as="geometry" />
        </mxCell>
        <mxCell id="kCNPVURfCYWpfMIY_Az6-135" value="&lt;font style=&quot;font-size: 12px;&quot;&gt;&lt;b&gt;FK&lt;/b&gt;&lt;/font&gt;" style="text;html=1;align=center;verticalAlign=middle;resizable=0;points=[];autosize=1;strokeColor=none;fillColor=none;fontSize=16;" vertex="1" parent="kCNPVURfCYWpfMIY_Az6-124">
          <mxGeometry x="0.5" y="117" width="34" height="31" as="geometry" />
        </mxCell>
        <mxCell id="kCNPVURfCYWpfMIY_Az6-136" value="&lt;font style=&quot;font-size: 12px;&quot;&gt;&lt;b&gt;FK&lt;/b&gt;&lt;/font&gt;" style="text;html=1;align=center;verticalAlign=middle;resizable=0;points=[];autosize=1;strokeColor=none;fillColor=none;fontSize=16;" vertex="1" parent="kCNPVURfCYWpfMIY_Az6-124">
          <mxGeometry x="0.5" y="98" width="34" height="31" as="geometry" />
        </mxCell>
        <mxCell id="kCNPVURfCYWpfMIY_Az6-157" value="" style="group" vertex="1" connectable="0" parent="WIyWlLk6GJQsqaUBKTNV-1">
          <mxGeometry x="-282" y="147" width="147" height="67" as="geometry" />
        </mxCell>
        <mxCell id="kCNPVURfCYWpfMIY_Az6-150" value="" style="rounded=0;whiteSpace=wrap;html=1;fontSize=16;container=0;" vertex="1" parent="kCNPVURfCYWpfMIY_Az6-157">
          <mxGeometry width="147" height="67" as="geometry" />
        </mxCell>
        <mxCell id="kCNPVURfCYWpfMIY_Az6-151" value="FIRMA" style="text;strokeColor=none;fillColor=none;html=1;align=center;verticalAlign=middle;whiteSpace=wrap;rounded=0;fontSize=16;container=0;" vertex="1" parent="kCNPVURfCYWpfMIY_Az6-157">
          <mxGeometry x="52.85958904109589" y="8.357378640776687" width="41.28082191780822" height="7.645631067961165" as="geometry" />
        </mxCell>
        <mxCell id="kCNPVURfCYWpfMIY_Az6-141" value="&lt;span style=&quot;font-size: 12px;&quot;&gt;id_mall&lt;/span&gt;" style="text;html=1;strokeColor=none;fillColor=none;align=center;verticalAlign=middle;whiteSpace=wrap;rounded=0;fontSize=16;container=0;" vertex="1" parent="kCNPVURfCYWpfMIY_Az6-157">
          <mxGeometry x="49" y="24" width="49" height="19" as="geometry" />
        </mxCell>
        <mxCell id="kCNPVURfCYWpfMIY_Az6-142" value="&lt;span style=&quot;font-size: 12px;&quot;&gt;tara&lt;/span&gt;" style="text;html=1;strokeColor=none;fillColor=none;align=center;verticalAlign=middle;whiteSpace=wrap;rounded=0;fontSize=16;container=0;" vertex="1" parent="kCNPVURfCYWpfMIY_Az6-157">
          <mxGeometry x="49" y="43" width="49" height="19" as="geometry" />
        </mxCell>
        <mxCell id="kCNPVURfCYWpfMIY_Az6-147" value="&lt;font style=&quot;font-size: 12px;&quot;&gt;&lt;b&gt;PK&lt;/b&gt;&lt;/font&gt;" style="text;html=1;align=center;verticalAlign=middle;resizable=0;points=[];autosize=1;strokeColor=none;fillColor=none;fontSize=16;container=0;" vertex="1" parent="kCNPVURfCYWpfMIY_Az6-157">
          <mxGeometry y="18" width="35" height="31" as="geometry" />
        </mxCell>
        <mxCell id="kCNPVURfCYWpfMIY_Az6-156" value="" style="endArrow=none;html=1;rounded=0;fontSize=12;startSize=8;endSize=8;curved=1;exitX=0.004;exitY=0.301;exitDx=0;exitDy=0;exitPerimeter=0;entryX=0.999;entryY=0.301;entryDx=0;entryDy=0;entryPerimeter=0;" edge="1" parent="kCNPVURfCYWpfMIY_Az6-157" source="kCNPVURfCYWpfMIY_Az6-150" target="kCNPVURfCYWpfMIY_Az6-150">
          <mxGeometry width="50" height="50" relative="1" as="geometry">
            <mxPoint x="117" y="-7" as="sourcePoint" />
            <mxPoint x="167" y="-57" as="targetPoint" />
          </mxGeometry>
        </mxCell>
        <mxCell id="kCNPVURfCYWpfMIY_Az6-158" value="" style="group" vertex="1" connectable="0" parent="WIyWlLk6GJQsqaUBKTNV-1">
          <mxGeometry x="-285" y="539" width="146" height="148" as="geometry" />
        </mxCell>
        <mxCell id="kCNPVURfCYWpfMIY_Az6-159" value="" style="whiteSpace=wrap;html=1;aspect=fixed;fontSize=16;container=0;" vertex="1" parent="kCNPVURfCYWpfMIY_Az6-158">
          <mxGeometry width="146" height="146" as="geometry" />
        </mxCell>
        <mxCell id="kCNPVURfCYWpfMIY_Az6-160" value="" style="endArrow=none;html=1;rounded=0;fontSize=12;startSize=8;endSize=8;curved=1;exitX=0.002;exitY=0.166;exitDx=0;exitDy=0;exitPerimeter=0;entryX=0.998;entryY=0.166;entryDx=0;entryDy=0;entryPerimeter=0;" edge="1" parent="kCNPVURfCYWpfMIY_Az6-158" source="kCNPVURfCYWpfMIY_Az6-159" target="kCNPVURfCYWpfMIY_Az6-159">
          <mxGeometry width="50" height="50" relative="1" as="geometry">
            <mxPoint x="74" y="127" as="sourcePoint" />
            <mxPoint x="147" y="24" as="targetPoint" />
          </mxGeometry>
        </mxCell>
        <mxCell id="kCNPVURfCYWpfMIY_Az6-161" value="PROMOVARE" style="text;strokeColor=none;fillColor=none;html=1;align=center;verticalAlign=middle;whiteSpace=wrap;rounded=0;fontSize=16;container=0;" vertex="1" parent="kCNPVURfCYWpfMIY_Az6-158">
          <mxGeometry x="50" y="3" width="41" height="15" as="geometry" />
        </mxCell>
        <mxCell id="kCNPVURfCYWpfMIY_Az6-162" value="&lt;span style=&quot;font-size: 12px;&quot;&gt;id_promovare&lt;/span&gt;" style="text;html=1;strokeColor=none;fillColor=none;align=center;verticalAlign=middle;whiteSpace=wrap;rounded=0;fontSize=16;" vertex="1" parent="kCNPVURfCYWpfMIY_Az6-158">
          <mxGeometry x="46" y="28" width="49" height="19" as="geometry" />
        </mxCell>
        <mxCell id="kCNPVURfCYWpfMIY_Az6-163" value="&lt;span style=&quot;font-size: 12px;&quot;&gt;nume_campanie&lt;/span&gt;" style="text;html=1;strokeColor=none;fillColor=none;align=center;verticalAlign=middle;whiteSpace=wrap;rounded=0;fontSize=16;" vertex="1" parent="kCNPVURfCYWpfMIY_Az6-158">
          <mxGeometry x="48.5" y="47" width="49" height="19" as="geometry" />
        </mxCell>
        <mxCell id="kCNPVURfCYWpfMIY_Az6-164" value="&lt;font style=&quot;font-size: 12px;&quot;&gt;data_inceput&lt;/font&gt;" style="text;html=1;strokeColor=none;fillColor=none;align=center;verticalAlign=middle;whiteSpace=wrap;rounded=0;fontSize=16;" vertex="1" parent="kCNPVURfCYWpfMIY_Az6-158">
          <mxGeometry x="46" y="66" width="49" height="19" as="geometry" />
        </mxCell>
        <mxCell id="kCNPVURfCYWpfMIY_Az6-165" value="&lt;font style=&quot;font-size: 12px;&quot;&gt;data_sfarsit&lt;/font&gt;" style="text;html=1;strokeColor=none;fillColor=none;align=center;verticalAlign=middle;whiteSpace=wrap;rounded=0;fontSize=16;" vertex="1" parent="kCNPVURfCYWpfMIY_Az6-158">
          <mxGeometry x="46" y="85" width="49" height="19" as="geometry" />
        </mxCell>
        <mxCell id="kCNPVURfCYWpfMIY_Az6-168" value="&lt;font style=&quot;font-size: 12px;&quot;&gt;&lt;b&gt;PK&lt;/b&gt;&lt;/font&gt;" style="text;html=1;align=center;verticalAlign=middle;resizable=0;points=[];autosize=1;strokeColor=none;fillColor=none;fontSize=16;" vertex="1" parent="kCNPVURfCYWpfMIY_Az6-158">
          <mxGeometry y="22" width="35" height="31" as="geometry" />
        </mxCell>
        <mxCell id="kCNPVURfCYWpfMIY_Az6-171" value="" style="group" vertex="1" connectable="0" parent="WIyWlLk6GJQsqaUBKTNV-1">
          <mxGeometry x="-79" y="539" width="147" height="86" as="geometry" />
        </mxCell>
        <mxCell id="kCNPVURfCYWpfMIY_Az6-172" value="" style="rounded=0;whiteSpace=wrap;html=1;fontSize=16;container=0;" vertex="1" parent="kCNPVURfCYWpfMIY_Az6-171">
          <mxGeometry width="147" height="86" as="geometry" />
        </mxCell>
        <mxCell id="kCNPVURfCYWpfMIY_Az6-173" value="CHIRIAS" style="text;strokeColor=none;fillColor=none;html=1;align=center;verticalAlign=middle;whiteSpace=wrap;rounded=0;fontSize=16;container=0;" vertex="1" parent="kCNPVURfCYWpfMIY_Az6-171">
          <mxGeometry x="52.86" y="12.075087719298246" width="41.28" height="6.035087719298245" as="geometry" />
        </mxCell>
        <mxCell id="kCNPVURfCYWpfMIY_Az6-174" value="&lt;span style=&quot;font-size: 12px;&quot;&gt;id_chirias&lt;/span&gt;" style="text;html=1;strokeColor=none;fillColor=none;align=center;verticalAlign=middle;whiteSpace=wrap;rounded=0;fontSize=16;container=0;" vertex="1" parent="kCNPVURfCYWpfMIY_Az6-171">
          <mxGeometry x="49" y="24.995263157894733" width="49" height="14.333333333333332" as="geometry" />
        </mxCell>
        <mxCell id="kCNPVURfCYWpfMIY_Az6-175" value="&lt;span style=&quot;font-size: 12px;&quot;&gt;nume_chirias&lt;/span&gt;" style="text;html=1;strokeColor=none;fillColor=none;align=center;verticalAlign=middle;whiteSpace=wrap;rounded=0;fontSize=16;container=0;" vertex="1" parent="kCNPVURfCYWpfMIY_Az6-171">
          <mxGeometry x="49" y="40.99859649122807" width="49" height="14.333333333333332" as="geometry" />
        </mxCell>
        <mxCell id="kCNPVURfCYWpfMIY_Az6-176" value="&lt;font style=&quot;font-size: 12px;&quot;&gt;&lt;b&gt;PK&lt;/b&gt;&lt;/font&gt;" style="text;html=1;align=center;verticalAlign=middle;resizable=0;points=[];autosize=1;strokeColor=none;fillColor=none;fontSize=16;container=0;" vertex="1" parent="kCNPVURfCYWpfMIY_Az6-171">
          <mxGeometry y="16.658947368421053" width="35" height="31" as="geometry" />
        </mxCell>
        <mxCell id="kCNPVURfCYWpfMIY_Az6-178" value="&lt;span style=&quot;font-size: 12px;&quot;&gt;email&lt;/span&gt;" style="text;html=1;strokeColor=none;fillColor=none;align=center;verticalAlign=middle;whiteSpace=wrap;rounded=0;fontSize=16;container=0;" vertex="1" parent="kCNPVURfCYWpfMIY_Az6-171">
          <mxGeometry x="49" y="55.331929824561485" width="49" height="14.333333333333332" as="geometry" />
        </mxCell>
        <mxCell id="kCNPVURfCYWpfMIY_Az6-180" value="" style="endArrow=none;html=1;rounded=0;fontSize=12;startSize=8;endSize=8;curved=1;exitX=0.004;exitY=0.287;exitDx=0;exitDy=0;exitPerimeter=0;entryX=1.002;entryY=0.294;entryDx=0;entryDy=0;entryPerimeter=0;" edge="1" parent="kCNPVURfCYWpfMIY_Az6-171" source="kCNPVURfCYWpfMIY_Az6-172" target="kCNPVURfCYWpfMIY_Az6-172">
          <mxGeometry width="50" height="50" relative="1" as="geometry">
            <mxPoint x="99" y="49" as="sourcePoint" />
            <mxPoint x="149" y="-1" as="targetPoint" />
          </mxGeometry>
        </mxCell>
        <mxCell id="kCNPVURfCYWpfMIY_Az6-181" value="" style="group" vertex="1" connectable="0" parent="WIyWlLk6GJQsqaUBKTNV-1">
          <mxGeometry x="318" y="169" width="147" height="68" as="geometry" />
        </mxCell>
        <mxCell id="kCNPVURfCYWpfMIY_Az6-182" value="" style="rounded=0;whiteSpace=wrap;html=1;fontSize=16;container=0;" vertex="1" parent="kCNPVURfCYWpfMIY_Az6-181">
          <mxGeometry width="147" height="67" as="geometry" />
        </mxCell>
        <mxCell id="kCNPVURfCYWpfMIY_Az6-183" value="STOC" style="text;strokeColor=none;fillColor=none;html=1;align=center;verticalAlign=middle;whiteSpace=wrap;rounded=0;fontSize=16;container=0;" vertex="1" parent="kCNPVURfCYWpfMIY_Az6-181">
          <mxGeometry x="52.85958904109589" y="8.357378640776687" width="41.28082191780822" height="7.645631067961165" as="geometry" />
        </mxCell>
        <mxCell id="kCNPVURfCYWpfMIY_Az6-184" value="&lt;span style=&quot;font-size: 12px;&quot;&gt;id_stoc&lt;/span&gt;" style="text;html=1;strokeColor=none;fillColor=none;align=center;verticalAlign=middle;whiteSpace=wrap;rounded=0;fontSize=16;container=0;" vertex="1" parent="kCNPVURfCYWpfMIY_Az6-181">
          <mxGeometry x="49" y="24" width="49" height="19" as="geometry" />
        </mxCell>
        <mxCell id="kCNPVURfCYWpfMIY_Az6-185" value="&lt;span style=&quot;font-size: 12px;&quot;&gt;id_magazin&lt;/span&gt;" style="text;html=1;strokeColor=none;fillColor=none;align=center;verticalAlign=middle;whiteSpace=wrap;rounded=0;fontSize=16;container=0;" vertex="1" parent="kCNPVURfCYWpfMIY_Az6-181">
          <mxGeometry x="49" y="43" width="49" height="19" as="geometry" />
        </mxCell>
        <mxCell id="kCNPVURfCYWpfMIY_Az6-186" value="&lt;font style=&quot;font-size: 12px;&quot;&gt;&lt;b&gt;PK&lt;/b&gt;&lt;/font&gt;" style="text;html=1;align=center;verticalAlign=middle;resizable=0;points=[];autosize=1;strokeColor=none;fillColor=none;fontSize=16;container=0;" vertex="1" parent="kCNPVURfCYWpfMIY_Az6-181">
          <mxGeometry y="18" width="35" height="31" as="geometry" />
        </mxCell>
        <mxCell id="kCNPVURfCYWpfMIY_Az6-187" value="" style="endArrow=none;html=1;rounded=0;fontSize=12;startSize=8;endSize=8;curved=1;exitX=0.004;exitY=0.301;exitDx=0;exitDy=0;exitPerimeter=0;entryX=0.999;entryY=0.301;entryDx=0;entryDy=0;entryPerimeter=0;" edge="1" parent="kCNPVURfCYWpfMIY_Az6-181" source="kCNPVURfCYWpfMIY_Az6-182" target="kCNPVURfCYWpfMIY_Az6-182">
          <mxGeometry width="50" height="50" relative="1" as="geometry">
            <mxPoint x="117" y="-7" as="sourcePoint" />
            <mxPoint x="167" y="-57" as="targetPoint" />
          </mxGeometry>
        </mxCell>
        <mxCell id="kCNPVURfCYWpfMIY_Az6-188" value="&lt;font style=&quot;font-size: 12px;&quot;&gt;&lt;b&gt;FK&lt;/b&gt;&lt;/font&gt;" style="text;html=1;align=center;verticalAlign=middle;resizable=0;points=[];autosize=1;strokeColor=none;fillColor=none;fontSize=16;" vertex="1" parent="kCNPVURfCYWpfMIY_Az6-181">
          <mxGeometry x="0.5" y="37" width="34" height="31" as="geometry" />
        </mxCell>
        <mxCell id="kCNPVURfCYWpfMIY_Az6-189" value="" style="group" vertex="1" connectable="0" parent="WIyWlLk6GJQsqaUBKTNV-1">
          <mxGeometry x="522" y="360.5" width="147" height="67" as="geometry" />
        </mxCell>
        <mxCell id="kCNPVURfCYWpfMIY_Az6-190" value="" style="rounded=0;whiteSpace=wrap;html=1;fontSize=16;container=0;" vertex="1" parent="kCNPVURfCYWpfMIY_Az6-189">
          <mxGeometry width="147" height="67" as="geometry" />
        </mxCell>
        <mxCell id="kCNPVURfCYWpfMIY_Az6-191" value="TRANZACTIE" style="text;strokeColor=none;fillColor=none;html=1;align=center;verticalAlign=middle;whiteSpace=wrap;rounded=0;fontSize=16;container=0;" vertex="1" parent="kCNPVURfCYWpfMIY_Az6-189">
          <mxGeometry x="52.85958904109589" y="8.357378640776687" width="41.28082191780822" height="7.645631067961165" as="geometry" />
        </mxCell>
        <mxCell id="kCNPVURfCYWpfMIY_Az6-192" value="&lt;span style=&quot;font-size: 12px;&quot;&gt;id_tranzactie&lt;/span&gt;" style="text;html=1;strokeColor=none;fillColor=none;align=center;verticalAlign=middle;whiteSpace=wrap;rounded=0;fontSize=16;container=0;" vertex="1" parent="kCNPVURfCYWpfMIY_Az6-189">
          <mxGeometry x="49" y="24" width="49" height="19" as="geometry" />
        </mxCell>
        <mxCell id="kCNPVURfCYWpfMIY_Az6-193" value="&lt;span style=&quot;font-size: 12px;&quot;&gt;data_ora&lt;/span&gt;" style="text;html=1;strokeColor=none;fillColor=none;align=center;verticalAlign=middle;whiteSpace=wrap;rounded=0;fontSize=16;container=0;" vertex="1" parent="kCNPVURfCYWpfMIY_Az6-189">
          <mxGeometry x="49" y="43" width="49" height="19" as="geometry" />
        </mxCell>
        <mxCell id="kCNPVURfCYWpfMIY_Az6-194" value="&lt;font style=&quot;font-size: 12px;&quot;&gt;&lt;b&gt;PK&lt;/b&gt;&lt;/font&gt;" style="text;html=1;align=center;verticalAlign=middle;resizable=0;points=[];autosize=1;strokeColor=none;fillColor=none;fontSize=16;container=0;" vertex="1" parent="kCNPVURfCYWpfMIY_Az6-189">
          <mxGeometry y="18" width="35" height="31" as="geometry" />
        </mxCell>
        <mxCell id="kCNPVURfCYWpfMIY_Az6-195" value="" style="endArrow=none;html=1;rounded=0;fontSize=12;startSize=8;endSize=8;curved=1;exitX=0.004;exitY=0.301;exitDx=0;exitDy=0;exitPerimeter=0;entryX=0.999;entryY=0.301;entryDx=0;entryDy=0;entryPerimeter=0;" edge="1" parent="kCNPVURfCYWpfMIY_Az6-189" source="kCNPVURfCYWpfMIY_Az6-190" target="kCNPVURfCYWpfMIY_Az6-190">
          <mxGeometry width="50" height="50" relative="1" as="geometry">
            <mxPoint x="117" y="-7" as="sourcePoint" />
            <mxPoint x="167" y="-57" as="targetPoint" />
          </mxGeometry>
        </mxCell>
        <mxCell id="kCNPVURfCYWpfMIY_Az6-196" value="" style="group" vertex="1" connectable="0" parent="WIyWlLk6GJQsqaUBKTNV-1">
          <mxGeometry x="528" y="169" width="146" height="155.00301380075928" as="geometry" />
        </mxCell>
        <mxCell id="kCNPVURfCYWpfMIY_Az6-197" value="" style="whiteSpace=wrap;html=1;aspect=fixed;fontSize=16;container=0;" vertex="1" parent="kCNPVURfCYWpfMIY_Az6-196">
          <mxGeometry width="146" height="146" as="geometry" />
        </mxCell>
        <mxCell id="kCNPVURfCYWpfMIY_Az6-198" value="" style="endArrow=none;html=1;rounded=0;fontSize=12;startSize=8;endSize=8;curved=1;exitX=0.002;exitY=0.166;exitDx=0;exitDy=0;exitPerimeter=0;entryX=0.998;entryY=0.166;entryDx=0;entryDy=0;entryPerimeter=0;" edge="1" parent="kCNPVURfCYWpfMIY_Az6-196" source="kCNPVURfCYWpfMIY_Az6-197" target="kCNPVURfCYWpfMIY_Az6-197">
          <mxGeometry width="50" height="50" relative="1" as="geometry">
            <mxPoint x="74" y="127" as="sourcePoint" />
            <mxPoint x="147" y="24" as="targetPoint" />
          </mxGeometry>
        </mxCell>
        <mxCell id="kCNPVURfCYWpfMIY_Az6-199" value="PRODUS" style="text;strokeColor=none;fillColor=none;html=1;align=center;verticalAlign=middle;whiteSpace=wrap;rounded=0;fontSize=16;container=0;" vertex="1" parent="kCNPVURfCYWpfMIY_Az6-196">
          <mxGeometry x="50" y="3" width="41" height="15" as="geometry" />
        </mxCell>
        <mxCell id="kCNPVURfCYWpfMIY_Az6-200" value="&lt;span style=&quot;font-size: 12px;&quot;&gt;id_produs&lt;/span&gt;" style="text;html=1;strokeColor=none;fillColor=none;align=center;verticalAlign=middle;whiteSpace=wrap;rounded=0;fontSize=16;" vertex="1" parent="kCNPVURfCYWpfMIY_Az6-196">
          <mxGeometry x="46" y="28" width="49" height="19" as="geometry" />
        </mxCell>
        <mxCell id="kCNPVURfCYWpfMIY_Az6-201" value="&lt;span style=&quot;font-size: 12px;&quot;&gt;nume_produs&lt;/span&gt;" style="text;html=1;strokeColor=none;fillColor=none;align=center;verticalAlign=middle;whiteSpace=wrap;rounded=0;fontSize=16;" vertex="1" parent="kCNPVURfCYWpfMIY_Az6-196">
          <mxGeometry x="48.5" y="47" width="49" height="19" as="geometry" />
        </mxCell>
        <mxCell id="kCNPVURfCYWpfMIY_Az6-202" value="&lt;font style=&quot;font-size: 12px;&quot;&gt;pret&lt;/font&gt;" style="text;html=1;strokeColor=none;fillColor=none;align=center;verticalAlign=middle;whiteSpace=wrap;rounded=0;fontSize=16;" vertex="1" parent="kCNPVURfCYWpfMIY_Az6-196">
          <mxGeometry x="46" y="66" width="49" height="19" as="geometry" />
        </mxCell>
        <mxCell id="kCNPVURfCYWpfMIY_Az6-204" value="&lt;font style=&quot;font-size: 12px;&quot;&gt;id_stoc&lt;/font&gt;" style="text;html=1;strokeColor=none;fillColor=none;align=center;verticalAlign=middle;whiteSpace=wrap;rounded=0;fontSize=16;" vertex="1" parent="kCNPVURfCYWpfMIY_Az6-196">
          <mxGeometry x="46" y="85" width="49" height="19" as="geometry" />
        </mxCell>
        <mxCell id="kCNPVURfCYWpfMIY_Az6-205" value="&lt;span style=&quot;font-size: 12px;&quot;&gt;id_tranzactie&lt;/span&gt;" style="text;html=1;strokeColor=none;fillColor=none;align=center;verticalAlign=middle;whiteSpace=wrap;rounded=0;fontSize=16;" vertex="1" parent="kCNPVURfCYWpfMIY_Az6-196">
          <mxGeometry x="46" y="104" width="49" height="19" as="geometry" />
        </mxCell>
        <mxCell id="kCNPVURfCYWpfMIY_Az6-206" value="&lt;font style=&quot;font-size: 12px;&quot;&gt;&lt;b&gt;PK&lt;/b&gt;&lt;/font&gt;" style="text;html=1;align=center;verticalAlign=middle;resizable=0;points=[];autosize=1;strokeColor=none;fillColor=none;fontSize=16;" vertex="1" parent="kCNPVURfCYWpfMIY_Az6-196">
          <mxGeometry y="22" width="35" height="31" as="geometry" />
        </mxCell>
        <mxCell id="kCNPVURfCYWpfMIY_Az6-207" value="&lt;font style=&quot;font-size: 12px;&quot;&gt;&lt;b&gt;FK&lt;/b&gt;&lt;/font&gt;" style="text;html=1;align=center;verticalAlign=middle;resizable=0;points=[];autosize=1;strokeColor=none;fillColor=none;fontSize=16;" vertex="1" parent="kCNPVURfCYWpfMIY_Az6-196">
          <mxGeometry x="1" y="98" width="34" height="31" as="geometry" />
        </mxCell>
        <mxCell id="kCNPVURfCYWpfMIY_Az6-208" value="&lt;font style=&quot;font-size: 12px;&quot;&gt;&lt;b&gt;FK&lt;/b&gt;&lt;/font&gt;" style="text;html=1;align=center;verticalAlign=middle;resizable=0;points=[];autosize=1;strokeColor=none;fillColor=none;fontSize=16;" vertex="1" parent="kCNPVURfCYWpfMIY_Az6-196">
          <mxGeometry x="0.5" y="79" width="34" height="31" as="geometry" />
        </mxCell>
        <mxCell id="kCNPVURfCYWpfMIY_Az6-209" value="" style="group" vertex="1" connectable="0" parent="WIyWlLk6GJQsqaUBKTNV-1">
          <mxGeometry x="390" y="539" width="146" height="148" as="geometry" />
        </mxCell>
        <mxCell id="kCNPVURfCYWpfMIY_Az6-210" value="" style="whiteSpace=wrap;html=1;aspect=fixed;fontSize=16;container=0;" vertex="1" parent="kCNPVURfCYWpfMIY_Az6-209">
          <mxGeometry width="146" height="146" as="geometry" />
        </mxCell>
        <mxCell id="kCNPVURfCYWpfMIY_Az6-211" value="" style="endArrow=none;html=1;rounded=0;fontSize=12;startSize=8;endSize=8;curved=1;exitX=0.002;exitY=0.166;exitDx=0;exitDy=0;exitPerimeter=0;entryX=0.998;entryY=0.166;entryDx=0;entryDy=0;entryPerimeter=0;" edge="1" parent="kCNPVURfCYWpfMIY_Az6-209" source="kCNPVURfCYWpfMIY_Az6-210" target="kCNPVURfCYWpfMIY_Az6-210">
          <mxGeometry width="50" height="50" relative="1" as="geometry">
            <mxPoint x="74" y="127" as="sourcePoint" />
            <mxPoint x="147" y="24" as="targetPoint" />
          </mxGeometry>
        </mxCell>
        <mxCell id="kCNPVURfCYWpfMIY_Az6-212" value="CLIENT" style="text;strokeColor=none;fillColor=none;html=1;align=center;verticalAlign=middle;whiteSpace=wrap;rounded=0;fontSize=16;container=0;" vertex="1" parent="kCNPVURfCYWpfMIY_Az6-209">
          <mxGeometry x="50" y="3" width="41" height="15" as="geometry" />
        </mxCell>
        <mxCell id="kCNPVURfCYWpfMIY_Az6-213" value="&lt;span style=&quot;font-size: 12px;&quot;&gt;id_client&lt;/span&gt;" style="text;html=1;strokeColor=none;fillColor=none;align=center;verticalAlign=middle;whiteSpace=wrap;rounded=0;fontSize=16;" vertex="1" parent="kCNPVURfCYWpfMIY_Az6-209">
          <mxGeometry x="46" y="28" width="49" height="19" as="geometry" />
        </mxCell>
        <mxCell id="kCNPVURfCYWpfMIY_Az6-214" value="&lt;span style=&quot;font-size: 12px;&quot;&gt;nume_client&lt;/span&gt;" style="text;html=1;strokeColor=none;fillColor=none;align=center;verticalAlign=middle;whiteSpace=wrap;rounded=0;fontSize=16;" vertex="1" parent="kCNPVURfCYWpfMIY_Az6-209">
          <mxGeometry x="48.5" y="47" width="49" height="19" as="geometry" />
        </mxCell>
        <mxCell id="kCNPVURfCYWpfMIY_Az6-215" value="&lt;font style=&quot;font-size: 12px;&quot;&gt;email&lt;/font&gt;" style="text;html=1;strokeColor=none;fillColor=none;align=center;verticalAlign=middle;whiteSpace=wrap;rounded=0;fontSize=16;" vertex="1" parent="kCNPVURfCYWpfMIY_Az6-209">
          <mxGeometry x="46" y="66" width="49" height="19" as="geometry" />
        </mxCell>
        <mxCell id="kCNPVURfCYWpfMIY_Az6-216" value="&lt;font style=&quot;font-size: 12px;&quot;&gt;telefon&lt;/font&gt;" style="text;html=1;strokeColor=none;fillColor=none;align=center;verticalAlign=middle;whiteSpace=wrap;rounded=0;fontSize=16;" vertex="1" parent="kCNPVURfCYWpfMIY_Az6-209">
          <mxGeometry x="46" y="85" width="49" height="19" as="geometry" />
        </mxCell>
        <mxCell id="kCNPVURfCYWpfMIY_Az6-217" value="&lt;font style=&quot;font-size: 12px;&quot;&gt;&lt;b&gt;PK&lt;/b&gt;&lt;/font&gt;" style="text;html=1;align=center;verticalAlign=middle;resizable=0;points=[];autosize=1;strokeColor=none;fillColor=none;fontSize=16;" vertex="1" parent="kCNPVURfCYWpfMIY_Az6-209">
          <mxGeometry y="22" width="35" height="31" as="geometry" />
        </mxCell>
        <mxCell id="kCNPVURfCYWpfMIY_Az6-218" value="" style="group" vertex="1" connectable="0" parent="WIyWlLk6GJQsqaUBKTNV-1">
          <mxGeometry x="172" y="539" width="146" height="148" as="geometry" />
        </mxCell>
        <mxCell id="kCNPVURfCYWpfMIY_Az6-219" value="" style="whiteSpace=wrap;html=1;aspect=fixed;fontSize=16;container=0;" vertex="1" parent="kCNPVURfCYWpfMIY_Az6-218">
          <mxGeometry width="146" height="146" as="geometry" />
        </mxCell>
        <mxCell id="kCNPVURfCYWpfMIY_Az6-220" value="" style="endArrow=none;html=1;rounded=0;fontSize=12;startSize=8;endSize=8;curved=1;exitX=0.002;exitY=0.166;exitDx=0;exitDy=0;exitPerimeter=0;entryX=0.998;entryY=0.166;entryDx=0;entryDy=0;entryPerimeter=0;" edge="1" parent="kCNPVURfCYWpfMIY_Az6-218" source="kCNPVURfCYWpfMIY_Az6-219" target="kCNPVURfCYWpfMIY_Az6-219">
          <mxGeometry width="50" height="50" relative="1" as="geometry">
            <mxPoint x="74" y="127" as="sourcePoint" />
            <mxPoint x="147" y="24" as="targetPoint" />
          </mxGeometry>
        </mxCell>
        <mxCell id="kCNPVURfCYWpfMIY_Az6-221" value="RECLAMATIE" style="text;strokeColor=none;fillColor=none;html=1;align=center;verticalAlign=middle;whiteSpace=wrap;rounded=0;fontSize=16;container=0;" vertex="1" parent="kCNPVURfCYWpfMIY_Az6-218">
          <mxGeometry x="50" y="3" width="41" height="15" as="geometry" />
        </mxCell>
        <mxCell id="kCNPVURfCYWpfMIY_Az6-222" value="&lt;span style=&quot;font-size: 12px;&quot;&gt;id_reclamatie&lt;/span&gt;" style="text;html=1;strokeColor=none;fillColor=none;align=center;verticalAlign=middle;whiteSpace=wrap;rounded=0;fontSize=16;" vertex="1" parent="kCNPVURfCYWpfMIY_Az6-218">
          <mxGeometry x="46" y="28" width="49" height="19" as="geometry" />
        </mxCell>
        <mxCell id="kCNPVURfCYWpfMIY_Az6-223" value="&lt;span style=&quot;font-size: 12px;&quot;&gt;data_ora&lt;/span&gt;" style="text;html=1;strokeColor=none;fillColor=none;align=center;verticalAlign=middle;whiteSpace=wrap;rounded=0;fontSize=16;" vertex="1" parent="kCNPVURfCYWpfMIY_Az6-218">
          <mxGeometry x="48.5" y="47" width="49" height="19" as="geometry" />
        </mxCell>
        <mxCell id="kCNPVURfCYWpfMIY_Az6-224" value="&lt;font style=&quot;font-size: 12px;&quot;&gt;motiv&lt;/font&gt;" style="text;html=1;strokeColor=none;fillColor=none;align=center;verticalAlign=middle;whiteSpace=wrap;rounded=0;fontSize=16;" vertex="1" parent="kCNPVURfCYWpfMIY_Az6-218">
          <mxGeometry x="46" y="66" width="49" height="19" as="geometry" />
        </mxCell>
        <mxCell id="kCNPVURfCYWpfMIY_Az6-225" value="&lt;font style=&quot;font-size: 12px;&quot;&gt;id_magazin&lt;/font&gt;" style="text;html=1;strokeColor=none;fillColor=none;align=center;verticalAlign=middle;whiteSpace=wrap;rounded=0;fontSize=16;" vertex="1" parent="kCNPVURfCYWpfMIY_Az6-218">
          <mxGeometry x="46" y="85" width="49" height="19" as="geometry" />
        </mxCell>
        <mxCell id="kCNPVURfCYWpfMIY_Az6-226" value="&lt;span style=&quot;font-size: 12px;&quot;&gt;id_client&lt;/span&gt;" style="text;html=1;strokeColor=none;fillColor=none;align=center;verticalAlign=middle;whiteSpace=wrap;rounded=0;fontSize=16;" vertex="1" parent="kCNPVURfCYWpfMIY_Az6-218">
          <mxGeometry x="46" y="104" width="49" height="19" as="geometry" />
        </mxCell>
        <mxCell id="kCNPVURfCYWpfMIY_Az6-227" value="&lt;font style=&quot;font-size: 12px;&quot;&gt;&lt;b&gt;PK&lt;/b&gt;&lt;/font&gt;" style="text;html=1;align=center;verticalAlign=middle;resizable=0;points=[];autosize=1;strokeColor=none;fillColor=none;fontSize=16;" vertex="1" parent="kCNPVURfCYWpfMIY_Az6-218">
          <mxGeometry y="22" width="35" height="31" as="geometry" />
        </mxCell>
        <mxCell id="kCNPVURfCYWpfMIY_Az6-228" value="&lt;font style=&quot;font-size: 12px;&quot;&gt;&lt;b&gt;FK&lt;/b&gt;&lt;/font&gt;" style="text;html=1;align=center;verticalAlign=middle;resizable=0;points=[];autosize=1;strokeColor=none;fillColor=none;fontSize=16;" vertex="1" parent="kCNPVURfCYWpfMIY_Az6-218">
          <mxGeometry x="1" y="98" width="34" height="31" as="geometry" />
        </mxCell>
        <mxCell id="kCNPVURfCYWpfMIY_Az6-229" value="&lt;font style=&quot;font-size: 12px;&quot;&gt;&lt;b&gt;FK&lt;/b&gt;&lt;/font&gt;" style="text;html=1;align=center;verticalAlign=middle;resizable=0;points=[];autosize=1;strokeColor=none;fillColor=none;fontSize=16;" vertex="1" parent="kCNPVURfCYWpfMIY_Az6-218">
          <mxGeometry x="0.5" y="79" width="34" height="31" as="geometry" />
        </mxCell>
        <mxCell id="kCNPVURfCYWpfMIY_Az6-230" value="" style="group;dashed=1;strokeColor=default;dashPattern=8 8;" vertex="1" connectable="0" parent="WIyWlLk6GJQsqaUBKTNV-1">
          <mxGeometry x="314" y="351" width="147" height="86" as="geometry" />
        </mxCell>
        <mxCell id="kCNPVURfCYWpfMIY_Az6-231" value="" style="rounded=0;whiteSpace=wrap;html=1;fontSize=16;container=0;dashed=1;dashPattern=8 8;" vertex="1" parent="kCNPVURfCYWpfMIY_Az6-230">
          <mxGeometry width="147" height="86" as="geometry" />
        </mxCell>
        <mxCell id="kCNPVURfCYWpfMIY_Az6-232" value="ACHIZITIE" style="text;strokeColor=none;fillColor=none;html=1;align=center;verticalAlign=middle;whiteSpace=wrap;rounded=0;fontSize=16;container=0;dashed=1;dashPattern=8 8;" vertex="1" parent="kCNPVURfCYWpfMIY_Az6-230">
          <mxGeometry x="52.86" y="12.075087719298246" width="41.28" height="6.035087719298245" as="geometry" />
        </mxCell>
        <mxCell id="kCNPVURfCYWpfMIY_Az6-233" value="&lt;span style=&quot;font-size: 12px;&quot;&gt;id_magazin&lt;/span&gt;" style="text;html=1;strokeColor=none;fillColor=none;align=center;verticalAlign=middle;whiteSpace=wrap;rounded=0;fontSize=16;container=0;dashed=1;dashPattern=8 8;" vertex="1" parent="kCNPVURfCYWpfMIY_Az6-230">
          <mxGeometry x="49" y="24.995263157894733" width="49" height="14.333333333333332" as="geometry" />
        </mxCell>
        <mxCell id="kCNPVURfCYWpfMIY_Az6-234" value="&lt;span style=&quot;font-size: 12px;&quot;&gt;id_client&lt;/span&gt;" style="text;html=1;strokeColor=none;fillColor=none;align=center;verticalAlign=middle;whiteSpace=wrap;rounded=0;fontSize=16;container=0;dashed=1;dashPattern=8 8;" vertex="1" parent="kCNPVURfCYWpfMIY_Az6-230">
          <mxGeometry x="49" y="40.99859649122807" width="49" height="14.333333333333332" as="geometry" />
        </mxCell>
        <mxCell id="kCNPVURfCYWpfMIY_Az6-235" value="&lt;font style=&quot;font-size: 12px;&quot;&gt;&lt;b&gt;FK&lt;/b&gt;&lt;/font&gt;" style="text;html=1;align=center;verticalAlign=middle;resizable=0;points=[];autosize=1;strokeColor=none;fillColor=none;fontSize=16;container=0;dashed=1;dashPattern=8 8;" vertex="1" parent="kCNPVURfCYWpfMIY_Az6-230">
          <mxGeometry x="1" y="16.658947368421053" width="34" height="31" as="geometry" />
        </mxCell>
        <mxCell id="kCNPVURfCYWpfMIY_Az6-236" value="&lt;span style=&quot;font-size: 12px;&quot;&gt;id_tranzactie&lt;/span&gt;" style="text;html=1;strokeColor=none;fillColor=none;align=center;verticalAlign=middle;whiteSpace=wrap;rounded=0;fontSize=16;container=0;dashed=1;dashPattern=8 8;" vertex="1" parent="kCNPVURfCYWpfMIY_Az6-230">
          <mxGeometry x="49" y="55.331929824561485" width="49" height="14.333333333333332" as="geometry" />
        </mxCell>
        <mxCell id="kCNPVURfCYWpfMIY_Az6-237" value="" style="endArrow=none;html=1;rounded=0;fontSize=12;startSize=8;endSize=8;curved=1;exitX=0.004;exitY=0.287;exitDx=0;exitDy=0;exitPerimeter=0;entryX=1.002;entryY=0.294;entryDx=0;entryDy=0;entryPerimeter=0;dashed=1;dashPattern=8 8;" edge="1" parent="kCNPVURfCYWpfMIY_Az6-230" source="kCNPVURfCYWpfMIY_Az6-231" target="kCNPVURfCYWpfMIY_Az6-231">
          <mxGeometry width="50" height="50" relative="1" as="geometry">
            <mxPoint x="99" y="49" as="sourcePoint" />
            <mxPoint x="149" y="-1" as="targetPoint" />
          </mxGeometry>
        </mxCell>
        <mxCell id="kCNPVURfCYWpfMIY_Az6-239" value="&lt;font style=&quot;font-size: 12px;&quot;&gt;&lt;b&gt;FK&lt;/b&gt;&lt;/font&gt;" style="text;html=1;align=center;verticalAlign=middle;resizable=0;points=[];autosize=1;strokeColor=none;fillColor=none;fontSize=16;container=0;dashed=1;dashPattern=8 8;" vertex="1" parent="kCNPVURfCYWpfMIY_Az6-230">
          <mxGeometry x="1" y="32.66894736842107" width="34" height="31" as="geometry" />
        </mxCell>
        <mxCell id="kCNPVURfCYWpfMIY_Az6-240" value="&lt;font style=&quot;font-size: 12px;&quot;&gt;&lt;b&gt;FK&lt;/b&gt;&lt;/font&gt;" style="text;html=1;align=center;verticalAlign=middle;resizable=0;points=[];autosize=1;strokeColor=none;fillColor=none;fontSize=16;container=0;dashed=1;dashPattern=8 8;" vertex="1" parent="kCNPVURfCYWpfMIY_Az6-230">
          <mxGeometry x="1" y="46.99894736842106" width="34" height="31" as="geometry" />
        </mxCell>
        <mxCell id="kCNPVURfCYWpfMIY_Az6-283" value="" style="group" vertex="1" connectable="0" parent="WIyWlLk6GJQsqaUBKTNV-1">
          <mxGeometry x="-79" y="24" width="341.5" height="253" as="geometry" />
        </mxCell>
        <mxCell id="kCNPVURfCYWpfMIY_Az6-272" value="" style="rounded=0;whiteSpace=wrap;html=1;fontSize=16;" vertex="1" parent="kCNPVURfCYWpfMIY_Az6-283">
          <mxGeometry width="341.5" height="253" as="geometry" />
        </mxCell>
        <mxCell id="kCNPVURfCYWpfMIY_Az6-270" value="" style="group" vertex="1" connectable="0" parent="kCNPVURfCYWpfMIY_Az6-283">
          <mxGeometry x="34.94624352331606" y="135.43494423791822" width="271.6075129533679" height="86.83726276658186" as="geometry" />
        </mxCell>
        <mxCell id="kCNPVURfCYWpfMIY_Az6-248" value="" style="group" vertex="1" connectable="0" parent="kCNPVURfCYWpfMIY_Az6-270">
          <mxGeometry width="130.05310880829018" height="86.83726276658186" as="geometry" />
        </mxCell>
        <mxCell id="kCNPVURfCYWpfMIY_Az6-249" value="" style="rounded=0;whiteSpace=wrap;html=1;fontSize=16;container=0;" vertex="1" parent="kCNPVURfCYWpfMIY_Az6-248">
          <mxGeometry width="130.05310880829018" height="83.7063197026022" as="geometry" />
        </mxCell>
        <mxCell id="kCNPVURfCYWpfMIY_Az6-250" value="PAZNIC" style="text;strokeColor=none;fillColor=none;html=1;align=center;verticalAlign=middle;whiteSpace=wrap;rounded=0;fontSize=16;container=0;" vertex="1" parent="kCNPVURfCYWpfMIY_Az6-248">
          <mxGeometry x="46.76603626943006" y="11.356866888410616" width="36.521036269430056" height="5.676123393986824" as="geometry" />
        </mxCell>
        <mxCell id="kCNPVURfCYWpfMIY_Az6-251" value="&lt;span style=&quot;font-size: 12px;&quot;&gt;id_paznic&lt;/span&gt;" style="text;html=1;strokeColor=none;fillColor=none;align=center;verticalAlign=middle;whiteSpace=wrap;rounded=0;fontSize=16;container=0;" vertex="1" parent="kCNPVURfCYWpfMIY_Az6-248">
          <mxGeometry x="43.35103626943006" y="23.50855605556642" width="43.35103626943006" height="13.480793060718707" as="geometry" />
        </mxCell>
        <mxCell id="kCNPVURfCYWpfMIY_Az6-252" value="&lt;span style=&quot;font-size: 12px;&quot;&gt;norma&lt;/span&gt;" style="text;html=1;strokeColor=none;fillColor=none;align=center;verticalAlign=middle;whiteSpace=wrap;rounded=0;fontSize=16;container=0;" vertex="1" parent="kCNPVURfCYWpfMIY_Az6-248">
          <mxGeometry x="43.35103626943006" y="38.56001826126654" width="43.35103626943006" height="13.480793060718707" as="geometry" />
        </mxCell>
        <mxCell id="kCNPVURfCYWpfMIY_Az6-253" value="&lt;font style=&quot;font-size: 12px;&quot;&gt;&lt;b&gt;PK&lt;/b&gt;&lt;/font&gt;" style="text;html=1;align=center;verticalAlign=middle;resizable=0;points=[];autosize=1;strokeColor=none;fillColor=none;fontSize=16;container=0;" vertex="1" parent="kCNPVURfCYWpfMIY_Az6-248">
          <mxGeometry y="15.668080610448051" width="35" height="31" as="geometry" />
        </mxCell>
        <mxCell id="kCNPVURfCYWpfMIY_Az6-254" value="&lt;span style=&quot;font-size: 12px;&quot;&gt;id_angajat&lt;/span&gt;" style="text;html=1;strokeColor=none;fillColor=none;align=center;verticalAlign=middle;whiteSpace=wrap;rounded=0;fontSize=16;container=0;" vertex="1" parent="kCNPVURfCYWpfMIY_Az6-248">
          <mxGeometry x="43.35103626943006" y="52.04081132198533" width="43.35103626943006" height="13.480793060718707" as="geometry" />
        </mxCell>
        <mxCell id="kCNPVURfCYWpfMIY_Az6-255" value="" style="endArrow=none;html=1;rounded=0;fontSize=12;startSize=8;endSize=8;curved=1;exitX=0.004;exitY=0.287;exitDx=0;exitDy=0;exitPerimeter=0;entryX=1.002;entryY=0.294;entryDx=0;entryDy=0;entryPerimeter=0;" edge="1" parent="kCNPVURfCYWpfMIY_Az6-248" source="kCNPVURfCYWpfMIY_Az6-249" target="kCNPVURfCYWpfMIY_Az6-249">
          <mxGeometry width="50" height="50" relative="1" as="geometry">
            <mxPoint x="87.58678756476685" y="46.08550185873605" as="sourcePoint" />
            <mxPoint x="131.82253886010366" y="-0.9405204460966542" as="targetPoint" />
          </mxGeometry>
        </mxCell>
        <mxCell id="kCNPVURfCYWpfMIY_Az6-256" value="&lt;span style=&quot;font-size: 12px;&quot;&gt;id_firma&lt;/span&gt;" style="text;html=1;strokeColor=none;fillColor=none;align=center;verticalAlign=middle;whiteSpace=wrap;rounded=0;fontSize=16;container=0;" vertex="1" parent="kCNPVURfCYWpfMIY_Az6-248">
          <mxGeometry x="43.35103626943006" y="65.51846931455037" width="43.35103626943006" height="13.480793060718707" as="geometry" />
        </mxCell>
        <mxCell id="kCNPVURfCYWpfMIY_Az6-257" value="&lt;span style=&quot;font-size: 12px;&quot;&gt;&lt;b&gt;FK&lt;br&gt;&lt;/b&gt;&lt;/span&gt;" style="text;html=1;align=center;verticalAlign=middle;resizable=0;points=[];autosize=1;strokeColor=none;fillColor=none;fontSize=16;container=0;" vertex="1" parent="kCNPVURfCYWpfMIY_Az6-248">
          <mxGeometry x="0.8847150259067359" y="44.20347094502054" width="34" height="31" as="geometry" />
        </mxCell>
        <mxCell id="kCNPVURfCYWpfMIY_Az6-258" value="&lt;span style=&quot;font-size: 12px;&quot;&gt;&lt;b&gt;FK&lt;br&gt;&lt;/b&gt;&lt;/span&gt;" style="text;html=1;align=center;verticalAlign=middle;resizable=0;points=[];autosize=1;strokeColor=none;fillColor=none;fontSize=16;container=0;" vertex="1" parent="kCNPVURfCYWpfMIY_Az6-248">
          <mxGeometry x="0.8847150259067359" y="57.68112893758558" width="34" height="31" as="geometry" />
        </mxCell>
        <mxCell id="kCNPVURfCYWpfMIY_Az6-259" value="" style="group" vertex="1" connectable="0" parent="kCNPVURfCYWpfMIY_Az6-270">
          <mxGeometry x="141.55440414507774" width="130.05310880829018" height="86.83726276658186" as="geometry" />
        </mxCell>
        <mxCell id="kCNPVURfCYWpfMIY_Az6-260" value="" style="rounded=0;whiteSpace=wrap;html=1;fontSize=16;container=0;" vertex="1" parent="kCNPVURfCYWpfMIY_Az6-259">
          <mxGeometry width="130.05310880829018" height="83.7063197026022" as="geometry" />
        </mxCell>
        <mxCell id="kCNPVURfCYWpfMIY_Az6-261" value="INTERN" style="text;strokeColor=none;fillColor=none;html=1;align=center;verticalAlign=middle;whiteSpace=wrap;rounded=0;fontSize=16;container=0;" vertex="1" parent="kCNPVURfCYWpfMIY_Az6-259">
          <mxGeometry x="46.76603626943006" y="11.356866888410616" width="36.521036269430056" height="5.676123393986824" as="geometry" />
        </mxCell>
        <mxCell id="kCNPVURfCYWpfMIY_Az6-262" value="&lt;span style=&quot;font-size: 12px;&quot;&gt;id_intern&lt;/span&gt;" style="text;html=1;strokeColor=none;fillColor=none;align=center;verticalAlign=middle;whiteSpace=wrap;rounded=0;fontSize=16;container=0;" vertex="1" parent="kCNPVURfCYWpfMIY_Az6-259">
          <mxGeometry x="43.35103626943006" y="23.50855605556642" width="43.35103626943006" height="13.480793060718707" as="geometry" />
        </mxCell>
        <mxCell id="kCNPVURfCYWpfMIY_Az6-263" value="&lt;span style=&quot;font-size: 12px;&quot;&gt;tura&lt;/span&gt;" style="text;html=1;strokeColor=none;fillColor=none;align=center;verticalAlign=middle;whiteSpace=wrap;rounded=0;fontSize=16;container=0;" vertex="1" parent="kCNPVURfCYWpfMIY_Az6-259">
          <mxGeometry x="43.35103626943006" y="38.56001826126654" width="43.35103626943006" height="13.480793060718707" as="geometry" />
        </mxCell>
        <mxCell id="kCNPVURfCYWpfMIY_Az6-264" value="&lt;font style=&quot;font-size: 12px;&quot;&gt;&lt;b&gt;PK&lt;/b&gt;&lt;/font&gt;" style="text;html=1;align=center;verticalAlign=middle;resizable=0;points=[];autosize=1;strokeColor=none;fillColor=none;fontSize=16;container=0;" vertex="1" parent="kCNPVURfCYWpfMIY_Az6-259">
          <mxGeometry y="15.668080610448051" width="35" height="31" as="geometry" />
        </mxCell>
        <mxCell id="kCNPVURfCYWpfMIY_Az6-265" value="&lt;span style=&quot;font-size: 12px;&quot;&gt;id_angajat&lt;/span&gt;" style="text;html=1;strokeColor=none;fillColor=none;align=center;verticalAlign=middle;whiteSpace=wrap;rounded=0;fontSize=16;container=0;" vertex="1" parent="kCNPVURfCYWpfMIY_Az6-259">
          <mxGeometry x="43.35103626943006" y="52.04081132198533" width="43.35103626943006" height="13.480793060718707" as="geometry" />
        </mxCell>
        <mxCell id="kCNPVURfCYWpfMIY_Az6-266" value="" style="endArrow=none;html=1;rounded=0;fontSize=12;startSize=8;endSize=8;curved=1;exitX=0.004;exitY=0.287;exitDx=0;exitDy=0;exitPerimeter=0;entryX=1.002;entryY=0.294;entryDx=0;entryDy=0;entryPerimeter=0;" edge="1" parent="kCNPVURfCYWpfMIY_Az6-259" source="kCNPVURfCYWpfMIY_Az6-260" target="kCNPVURfCYWpfMIY_Az6-260">
          <mxGeometry width="50" height="50" relative="1" as="geometry">
            <mxPoint x="87.58678756476685" y="46.08550185873605" as="sourcePoint" />
            <mxPoint x="131.82253886010366" y="-0.9405204460966542" as="targetPoint" />
          </mxGeometry>
        </mxCell>
        <mxCell id="kCNPVURfCYWpfMIY_Az6-267" value="&lt;span style=&quot;font-size: 12px;&quot;&gt;id_magazin&lt;/span&gt;" style="text;html=1;strokeColor=none;fillColor=none;align=center;verticalAlign=middle;whiteSpace=wrap;rounded=0;fontSize=16;container=0;" vertex="1" parent="kCNPVURfCYWpfMIY_Az6-259">
          <mxGeometry x="43.35103626943006" y="65.51846931455037" width="43.35103626943006" height="13.480793060718707" as="geometry" />
        </mxCell>
        <mxCell id="kCNPVURfCYWpfMIY_Az6-268" value="&lt;span style=&quot;font-size: 12px;&quot;&gt;&lt;b&gt;FK&lt;br&gt;&lt;/b&gt;&lt;/span&gt;" style="text;html=1;align=center;verticalAlign=middle;resizable=0;points=[];autosize=1;strokeColor=none;fillColor=none;fontSize=16;container=0;" vertex="1" parent="kCNPVURfCYWpfMIY_Az6-259">
          <mxGeometry x="0.8847150259067359" y="44.20347094502054" width="34" height="31" as="geometry" />
        </mxCell>
        <mxCell id="kCNPVURfCYWpfMIY_Az6-269" value="&lt;span style=&quot;font-size: 12px;&quot;&gt;&lt;b&gt;FK&lt;br&gt;&lt;/b&gt;&lt;/span&gt;" style="text;html=1;align=center;verticalAlign=middle;resizable=0;points=[];autosize=1;strokeColor=none;fillColor=none;fontSize=16;container=0;" vertex="1" parent="kCNPVURfCYWpfMIY_Az6-259">
          <mxGeometry x="0.8847150259067359" y="57.68112893758558" width="34" height="31" as="geometry" />
        </mxCell>
        <mxCell id="kCNPVURfCYWpfMIY_Az6-273" value="" style="endArrow=none;html=1;rounded=0;fontSize=12;startSize=8;endSize=8;curved=1;exitX=0.003;exitY=0.123;exitDx=0;exitDy=0;exitPerimeter=0;entryX=0.999;entryY=0.115;entryDx=0;entryDy=0;entryPerimeter=0;" edge="1" parent="kCNPVURfCYWpfMIY_Az6-283" source="kCNPVURfCYWpfMIY_Az6-272" target="kCNPVURfCYWpfMIY_Az6-272">
          <mxGeometry width="50" height="50" relative="1" as="geometry">
            <mxPoint x="319.824481865285" y="325.4200743494423" as="sourcePoint" />
            <mxPoint x="364.0602331606217" y="278.3940520446097" as="targetPoint" />
          </mxGeometry>
        </mxCell>
        <mxCell id="kCNPVURfCYWpfMIY_Az6-274" value="ANGAJAT" style="text;strokeColor=none;fillColor=none;html=1;align=center;verticalAlign=middle;whiteSpace=wrap;rounded=0;fontSize=16;container=0;" vertex="1" parent="kCNPVURfCYWpfMIY_Az6-283">
          <mxGeometry x="152.61334196891193" y="9.40520446096654" width="36.273316062176164" height="14.107806691449811" as="geometry" />
        </mxCell>
        <mxCell id="kCNPVURfCYWpfMIY_Az6-275" value="&lt;span style=&quot;font-size: 12px;&quot;&gt;id_angajat&lt;/span&gt;" style="text;html=1;strokeColor=none;fillColor=none;align=center;verticalAlign=middle;whiteSpace=wrap;rounded=0;fontSize=16;" vertex="1" parent="kCNPVURfCYWpfMIY_Az6-283">
          <mxGeometry x="149.07448186528495" y="38.56133828996282" width="43.35103626943005" height="17.869888475836426" as="geometry" />
        </mxCell>
        <mxCell id="kCNPVURfCYWpfMIY_Az6-277" value="&lt;span style=&quot;font-size: 12px;&quot;&gt;nume_angajat&lt;/span&gt;" style="text;html=1;strokeColor=none;fillColor=none;align=center;verticalAlign=middle;whiteSpace=wrap;rounded=0;fontSize=16;" vertex="1" parent="kCNPVURfCYWpfMIY_Az6-283">
          <mxGeometry x="149.07448186528495" y="56.431226765799245" width="43.35103626943005" height="17.869888475836426" as="geometry" />
        </mxCell>
        <mxCell id="kCNPVURfCYWpfMIY_Az6-278" value="&lt;span style=&quot;font-size: 12px;&quot;&gt;salariu&lt;/span&gt;" style="text;html=1;strokeColor=none;fillColor=none;align=center;verticalAlign=middle;whiteSpace=wrap;rounded=0;fontSize=16;" vertex="1" parent="kCNPVURfCYWpfMIY_Az6-283">
          <mxGeometry x="149.07448186528495" y="74.30111524163567" width="43.35103626943005" height="17.869888475836426" as="geometry" />
        </mxCell>
        <mxCell id="kCNPVURfCYWpfMIY_Az6-279" value="&lt;span style=&quot;font-size: 12px;&quot;&gt;data_angajarii&lt;/span&gt;" style="text;html=1;strokeColor=none;fillColor=none;align=center;verticalAlign=middle;whiteSpace=wrap;rounded=0;fontSize=16;" vertex="1" parent="kCNPVURfCYWpfMIY_Az6-283">
          <mxGeometry x="149.07448186528495" y="94.99256505576207" width="43.35103626943005" height="17.869888475836426" as="geometry" />
        </mxCell>
        <mxCell id="kCNPVURfCYWpfMIY_Az6-280" value="&lt;font style=&quot;font-size: 12px;&quot;&gt;&lt;b&gt;PK&lt;/b&gt;&lt;/font&gt;" style="text;html=1;align=center;verticalAlign=middle;resizable=0;points=[];autosize=1;strokeColor=none;fillColor=none;fontSize=16;" vertex="1" parent="kCNPVURfCYWpfMIY_Az6-283">
          <mxGeometry x="101.99930051813472" y="31.16108828996282" width="35" height="31" as="geometry" />
        </mxCell>
        <mxCell id="kCNPVURfCYWpfMIY_Az6-281" value="" style="endArrow=none;html=1;rounded=0;fontSize=12;startSize=8;endSize=8;curved=1;exitX=0.301;exitY=0.994;exitDx=0;exitDy=0;exitPerimeter=0;entryX=0.213;entryY=1.006;entryDx=0;entryDy=0;entryPerimeter=0;" edge="1" parent="kCNPVURfCYWpfMIY_Az6-283" source="kCNPVURfCYWpfMIY_Az6-249" target="kCNPVURfCYWpfMIY_Az6-272">
          <mxGeometry width="50" height="50" relative="1" as="geometry">
            <mxPoint x="280.89702072538853" y="261.4646840148699" as="sourcePoint" />
            <mxPoint x="325.1327720207254" y="214.43866171003717" as="targetPoint" />
          </mxGeometry>
        </mxCell>
        <mxCell id="kCNPVURfCYWpfMIY_Az6-291" value="&lt;b&gt;&lt;u&gt;X&lt;/u&gt;&lt;/b&gt;" style="edgeLabel;html=1;align=center;verticalAlign=middle;resizable=0;points=[];fontSize=16;" vertex="1" connectable="0" parent="kCNPVURfCYWpfMIY_Az6-281">
          <mxGeometry x="-0.5016" y="1" relative="1" as="geometry">
            <mxPoint x="-1" y="4" as="offset" />
          </mxGeometry>
        </mxCell>
        <mxCell id="kCNPVURfCYWpfMIY_Az6-292" value="" style="endArrow=none;html=1;rounded=0;fontSize=12;startSize=8;endSize=8;curved=1;exitX=0.518;exitY=0.8;exitDx=0;exitDy=0;exitPerimeter=0;entryX=0.571;entryY=1.001;entryDx=0;entryDy=0;entryPerimeter=0;" edge="1" parent="kCNPVURfCYWpfMIY_Az6-283" source="kCNPVURfCYWpfMIY_Az6-269" target="kCNPVURfCYWpfMIY_Az6-272">
          <mxGeometry width="50" height="50" relative="1" as="geometry">
            <mxPoint x="84" y="228.75416666666666" as="sourcePoint" />
            <mxPoint x="83" y="264.59583333333336" as="targetPoint" />
          </mxGeometry>
        </mxCell>
        <mxCell id="kCNPVURfCYWpfMIY_Az6-293" value="&lt;b&gt;&lt;u&gt;X&lt;/u&gt;&lt;/b&gt;" style="edgeLabel;html=1;align=center;verticalAlign=middle;resizable=0;points=[];fontSize=16;" vertex="1" connectable="0" parent="kCNPVURfCYWpfMIY_Az6-292">
          <mxGeometry x="-0.5016" y="1" relative="1" as="geometry">
            <mxPoint x="-2" y="2" as="offset" />
          </mxGeometry>
        </mxCell>
        <mxCell id="kCNPVURfCYWpfMIY_Az6-284" value="" style="endArrow=none;html=1;rounded=0;fontSize=12;startSize=8;endSize=8;curved=1;exitX=0.459;exitY=0.993;exitDx=0;exitDy=0;exitPerimeter=0;" edge="1" parent="WIyWlLk6GJQsqaUBKTNV-1" source="kCNPVURfCYWpfMIY_Az6-150">
          <mxGeometry width="50" height="50" relative="1" as="geometry">
            <mxPoint x="282" y="348" as="sourcePoint" />
            <mxPoint x="-215" y="321" as="targetPoint" />
          </mxGeometry>
        </mxCell>
        <mxCell id="kCNPVURfCYWpfMIY_Az6-285" value="&lt;b&gt;X&lt;/b&gt;" style="edgeLabel;html=1;align=center;verticalAlign=middle;resizable=0;points=[];fontSize=16;" vertex="1" connectable="0" parent="kCNPVURfCYWpfMIY_Az6-284">
          <mxGeometry x="0.8139" y="-1" relative="1" as="geometry">
            <mxPoint as="offset" />
          </mxGeometry>
        </mxCell>
        <mxCell id="kCNPVURfCYWpfMIY_Az6-286" value="" style="endArrow=none;html=1;rounded=0;fontSize=12;startSize=8;endSize=8;curved=1;exitX=0.381;exitY=-0.248;exitDx=0;exitDy=0;exitPerimeter=0;entryX=0.449;entryY=0.993;entryDx=0;entryDy=0;entryPerimeter=0;" edge="1" parent="WIyWlLk6GJQsqaUBKTNV-1" source="kCNPVURfCYWpfMIY_Az6-161" target="kCNPVURfCYWpfMIY_Az6-125">
          <mxGeometry width="50" height="50" relative="1" as="geometry">
            <mxPoint x="-205" y="214" as="sourcePoint" />
            <mxPoint x="-205" y="331" as="targetPoint" />
          </mxGeometry>
        </mxCell>
        <mxCell id="kCNPVURfCYWpfMIY_Az6-287" value="&lt;b&gt;X&lt;/b&gt;" style="edgeLabel;html=1;align=center;verticalAlign=middle;resizable=0;points=[];fontSize=16;" vertex="1" connectable="0" parent="kCNPVURfCYWpfMIY_Az6-286">
          <mxGeometry x="0.8139" y="-1" relative="1" as="geometry">
            <mxPoint x="-1" y="8" as="offset" />
          </mxGeometry>
        </mxCell>
        <mxCell id="kCNPVURfCYWpfMIY_Az6-288" value="" style="endArrow=none;html=1;rounded=0;fontSize=12;startSize=8;endSize=8;curved=1;exitX=1.004;exitY=0.728;exitDx=0;exitDy=0;exitPerimeter=0;entryX=-0.082;entryY=0.686;entryDx=0;entryDy=0;entryPerimeter=0;" edge="1" parent="WIyWlLk6GJQsqaUBKTNV-1" source="kCNPVURfCYWpfMIY_Az6-150" target="kCNPVURfCYWpfMIY_Az6-253">
          <mxGeometry width="50" height="50" relative="1" as="geometry">
            <mxPoint x="-195" y="224" as="sourcePoint" />
            <mxPoint x="-195" y="341" as="targetPoint" />
          </mxGeometry>
        </mxCell>
        <mxCell id="kCNPVURfCYWpfMIY_Az6-289" value="&lt;b&gt;X&lt;/b&gt;" style="edgeLabel;html=1;align=center;verticalAlign=middle;resizable=0;points=[];fontSize=16;" vertex="1" connectable="0" parent="kCNPVURfCYWpfMIY_Az6-288">
          <mxGeometry x="0.8139" y="-1" relative="1" as="geometry">
            <mxPoint as="offset" />
          </mxGeometry>
        </mxCell>
        <mxCell id="kCNPVURfCYWpfMIY_Az6-294" value="" style="endArrow=none;html=1;rounded=0;fontSize=12;startSize=8;endSize=8;curved=1;entryX=0.604;entryY=1.002;entryDx=0;entryDy=0;entryPerimeter=0;" edge="1" parent="WIyWlLk6GJQsqaUBKTNV-1" target="kCNPVURfCYWpfMIY_Az6-260">
          <mxGeometry width="50" height="50" relative="1" as="geometry">
            <mxPoint x="176" y="325" as="sourcePoint" />
            <mxPoint x="-205" y="331" as="targetPoint" />
          </mxGeometry>
        </mxCell>
        <mxCell id="kCNPVURfCYWpfMIY_Az6-295" value="&lt;b&gt;X&lt;/b&gt;" style="edgeLabel;html=1;align=center;verticalAlign=middle;resizable=0;points=[];fontSize=16;" vertex="1" connectable="0" parent="kCNPVURfCYWpfMIY_Az6-294">
          <mxGeometry x="0.8139" y="-1" relative="1" as="geometry">
            <mxPoint x="-1" y="3" as="offset" />
          </mxGeometry>
        </mxCell>
        <mxCell id="kCNPVURfCYWpfMIY_Az6-296" value="" style="endArrow=none;html=1;rounded=0;fontSize=12;startSize=8;endSize=8;curved=1;exitX=1.001;exitY=0.494;exitDx=0;exitDy=0;exitPerimeter=0;entryX=-0.023;entryY=0.492;entryDx=0;entryDy=0;entryPerimeter=0;" edge="1" parent="WIyWlLk6GJQsqaUBKTNV-1" source="kCNPVURfCYWpfMIY_Az6-125" target="kCNPVURfCYWpfMIY_Az6-98">
          <mxGeometry width="50" height="50" relative="1" as="geometry">
            <mxPoint x="-201" y="225" as="sourcePoint" />
            <mxPoint x="-205" y="331" as="targetPoint" />
          </mxGeometry>
        </mxCell>
        <mxCell id="kCNPVURfCYWpfMIY_Az6-297" value="&lt;b&gt;X&lt;/b&gt;" style="edgeLabel;html=1;align=center;verticalAlign=middle;resizable=0;points=[];fontSize=16;" vertex="1" connectable="0" parent="kCNPVURfCYWpfMIY_Az6-296">
          <mxGeometry x="0.8139" y="-1" relative="1" as="geometry">
            <mxPoint as="offset" />
          </mxGeometry>
        </mxCell>
        <mxCell id="kCNPVURfCYWpfMIY_Az6-298" value="" style="endArrow=none;html=1;rounded=0;fontSize=12;startSize=8;endSize=8;curved=1;exitX=0.705;exitY=-0.019;exitDx=0;exitDy=0;exitPerimeter=0;" edge="1" parent="WIyWlLk6GJQsqaUBKTNV-1" source="kCNPVURfCYWpfMIY_Az6-172">
          <mxGeometry width="50" height="50" relative="1" as="geometry">
            <mxPoint x="-209" y="548" as="sourcePoint" />
            <mxPoint x="25" y="449" as="targetPoint" />
          </mxGeometry>
        </mxCell>
        <mxCell id="kCNPVURfCYWpfMIY_Az6-300" value="" style="endArrow=none;html=1;rounded=0;fontSize=12;startSize=8;endSize=8;curved=1;exitX=-0.044;exitY=0.81;exitDx=0;exitDy=0;exitPerimeter=0;" edge="1" parent="WIyWlLk6GJQsqaUBKTNV-1" source="kCNPVURfCYWpfMIY_Az6-122">
          <mxGeometry width="50" height="50" relative="1" as="geometry">
            <mxPoint x="35" y="547" as="sourcePoint" />
            <mxPoint x="25" y="449" as="targetPoint" />
          </mxGeometry>
        </mxCell>
        <mxCell id="kCNPVURfCYWpfMIY_Az6-301" value="&lt;b&gt;X&lt;/b&gt;" style="edgeLabel;html=1;align=center;verticalAlign=middle;resizable=0;points=[];fontSize=16;" vertex="1" connectable="0" parent="WIyWlLk6GJQsqaUBKTNV-1">
          <mxGeometry x="80.98969000816874" y="447.00330117312234" as="geometry" />
        </mxCell>
        <mxCell id="kCNPVURfCYWpfMIY_Az6-302" value="" style="endArrow=none;html=1;rounded=0;fontSize=12;startSize=8;endSize=8;curved=1;exitX=0.234;exitY=0;exitDx=0;exitDy=0;exitPerimeter=0;entryX=0.738;entryY=0.997;entryDx=0;entryDy=0;entryPerimeter=0;" edge="1" parent="WIyWlLk6GJQsqaUBKTNV-1" source="kCNPVURfCYWpfMIY_Az6-219" target="kCNPVURfCYWpfMIY_Az6-98">
          <mxGeometry width="50" height="50" relative="1" as="geometry">
            <mxPoint x="105" y="459" as="sourcePoint" />
            <mxPoint x="35" y="459" as="targetPoint" />
          </mxGeometry>
        </mxCell>
        <mxCell id="kCNPVURfCYWpfMIY_Az6-304" value="&lt;b style=&quot;border-color: var(--border-color);&quot;&gt;&lt;u&gt;X&lt;/u&gt;&lt;/b&gt;" style="edgeLabel;html=1;align=center;verticalAlign=middle;resizable=0;points=[];fontSize=16;" vertex="1" connectable="0" parent="WIyWlLk6GJQsqaUBKTNV-1">
          <mxGeometry x="75.99969000816874" y="407.00330117312234" as="geometry">
            <mxPoint x="128" y="116" as="offset" />
          </mxGeometry>
        </mxCell>
        <mxCell id="kCNPVURfCYWpfMIY_Az6-305" value="" style="endArrow=none;html=1;rounded=0;fontSize=12;startSize=8;endSize=8;curved=1;exitX=1.021;exitY=0.455;exitDx=0;exitDy=0;exitPerimeter=0;entryX=0.011;entryY=0.468;entryDx=0;entryDy=0;entryPerimeter=0;" edge="1" parent="WIyWlLk6GJQsqaUBKTNV-1" source="kCNPVURfCYWpfMIY_Az6-219" target="kCNPVURfCYWpfMIY_Az6-210">
          <mxGeometry width="50" height="50" relative="1" as="geometry">
            <mxPoint x="216" y="549" as="sourcePoint" />
            <mxPoint x="214" y="481" as="targetPoint" />
          </mxGeometry>
        </mxCell>
        <mxCell id="kCNPVURfCYWpfMIY_Az6-307" value="&lt;b&gt;&lt;u&gt;X&lt;/u&gt;&lt;/b&gt;" style="edgeLabel;html=1;align=center;verticalAlign=middle;resizable=0;points=[];fontSize=16;" vertex="1" connectable="0" parent="WIyWlLk6GJQsqaUBKTNV-1">
          <mxGeometry x="83.9978522907749" y="413.0040334568553" as="geometry">
            <mxPoint x="243" y="191" as="offset" />
          </mxGeometry>
        </mxCell>
        <mxCell id="kCNPVURfCYWpfMIY_Az6-308" value="" style="endArrow=none;html=1;rounded=0;fontSize=12;startSize=8;endSize=8;curved=1;exitX=1;exitY=0.473;exitDx=0;exitDy=0;exitPerimeter=0;entryX=0;entryY=0.508;entryDx=0;entryDy=0;entryPerimeter=0;" edge="1" parent="WIyWlLk6GJQsqaUBKTNV-1" source="kCNPVURfCYWpfMIY_Az6-98" target="kCNPVURfCYWpfMIY_Az6-231">
          <mxGeometry width="50" height="50" relative="1" as="geometry">
            <mxPoint x="35" y="547" as="sourcePoint" />
            <mxPoint x="35" y="459" as="targetPoint" />
          </mxGeometry>
        </mxCell>
        <mxCell id="kCNPVURfCYWpfMIY_Az6-309" value="" style="endArrow=none;html=1;rounded=0;fontSize=12;startSize=8;endSize=8;curved=1;exitX=0.14;exitY=-0.003;exitDx=0;exitDy=0;exitPerimeter=0;entryX=0.65;entryY=1.032;entryDx=0;entryDy=0;entryPerimeter=0;" edge="1" parent="WIyWlLk6GJQsqaUBKTNV-1" source="kCNPVURfCYWpfMIY_Az6-210" target="kCNPVURfCYWpfMIY_Az6-231">
          <mxGeometry width="50" height="50" relative="1" as="geometry">
            <mxPoint x="252" y="405" as="sourcePoint" />
            <mxPoint x="323" y="402" as="targetPoint" />
          </mxGeometry>
        </mxCell>
        <mxCell id="kCNPVURfCYWpfMIY_Az6-310" value="" style="endArrow=none;html=1;rounded=0;fontSize=12;startSize=8;endSize=8;curved=1;exitX=1.015;exitY=0.518;exitDx=0;exitDy=0;exitPerimeter=0;entryX=0;entryY=0.523;entryDx=0;entryDy=0;entryPerimeter=0;" edge="1" parent="WIyWlLk6GJQsqaUBKTNV-1" source="kCNPVURfCYWpfMIY_Az6-231" target="kCNPVURfCYWpfMIY_Az6-194">
          <mxGeometry width="50" height="50" relative="1" as="geometry">
            <mxPoint x="262" y="415" as="sourcePoint" />
            <mxPoint x="333" y="412" as="targetPoint" />
          </mxGeometry>
        </mxCell>
        <mxCell id="kCNPVURfCYWpfMIY_Az6-311" value="&lt;b&gt;&lt;u&gt;X&lt;/u&gt;&lt;/b&gt;" style="edgeLabel;html=1;align=center;verticalAlign=middle;resizable=0;points=[];fontSize=16;" vertex="1" connectable="0" parent="WIyWlLk6GJQsqaUBKTNV-1">
          <mxGeometry x="-0.003076424943392553" y="272.00178431307296" as="geometry">
            <mxPoint x="301" y="120" as="offset" />
          </mxGeometry>
        </mxCell>
        <mxCell id="kCNPVURfCYWpfMIY_Az6-318" value="&lt;b&gt;&lt;u&gt;X&lt;/u&gt;&lt;/b&gt;" style="edgeLabel;html=1;align=center;verticalAlign=middle;resizable=0;points=[];fontSize=16;" vertex="1" connectable="0" parent="WIyWlLk6GJQsqaUBKTNV-1">
          <mxGeometry x="125.9971438153018" y="257.00161482760484" as="geometry">
            <mxPoint x="349" y="137" as="offset" />
          </mxGeometry>
        </mxCell>
        <mxCell id="kCNPVURfCYWpfMIY_Az6-319" value="&lt;b&gt;&lt;u&gt;X&lt;/u&gt;&lt;/b&gt;" style="edgeLabel;html=1;align=center;verticalAlign=middle;resizable=0;points=[];fontSize=16;" vertex="1" connectable="0" parent="WIyWlLk6GJQsqaUBKTNV-1">
          <mxGeometry x="409.9971438153018" y="454.00161482760484" as="geometry" />
        </mxCell>
        <mxCell id="kCNPVURfCYWpfMIY_Az6-320" value="" style="endArrow=none;html=1;rounded=0;fontSize=12;startSize=8;endSize=8;curved=1;exitX=0.536;exitY=0.033;exitDx=0;exitDy=0;exitPerimeter=0;entryX=0.498;entryY=1;entryDx=0;entryDy=0;entryPerimeter=0;" edge="1" parent="WIyWlLk6GJQsqaUBKTNV-1" source="kCNPVURfCYWpfMIY_Az6-190" target="kCNPVURfCYWpfMIY_Az6-197">
          <mxGeometry width="50" height="50" relative="1" as="geometry">
            <mxPoint x="417" y="417" as="sourcePoint" />
            <mxPoint x="601" y="312" as="targetPoint" />
          </mxGeometry>
        </mxCell>
        <mxCell id="kCNPVURfCYWpfMIY_Az6-321" value="&lt;b&gt;X&lt;/b&gt;" style="edgeLabel;html=1;align=center;verticalAlign=middle;resizable=0;points=[];fontSize=16;" vertex="1" connectable="0" parent="WIyWlLk6GJQsqaUBKTNV-1">
          <mxGeometry x="600.9978369519647" y="326.0030138007593" as="geometry" />
        </mxCell>
        <mxCell id="kCNPVURfCYWpfMIY_Az6-322" value="" style="endArrow=none;html=1;rounded=0;fontSize=12;startSize=8;endSize=8;curved=1;exitX=0.999;exitY=0.63;exitDx=0;exitDy=0;exitPerimeter=0;entryX=0.001;entryY=0.291;entryDx=0;entryDy=0;entryPerimeter=0;" edge="1" parent="WIyWlLk6GJQsqaUBKTNV-1" source="kCNPVURfCYWpfMIY_Az6-182" target="kCNPVURfCYWpfMIY_Az6-197">
          <mxGeometry width="50" height="50" relative="1" as="geometry">
            <mxPoint x="611" y="373" as="sourcePoint" />
            <mxPoint x="611" y="325" as="targetPoint" />
          </mxGeometry>
        </mxCell>
        <mxCell id="kCNPVURfCYWpfMIY_Az6-323" value="&lt;b&gt;X&lt;/b&gt;" style="edgeLabel;html=1;align=center;verticalAlign=middle;resizable=0;points=[];fontSize=16;" vertex="1" connectable="0" parent="WIyWlLk6GJQsqaUBKTNV-1">
          <mxGeometry x="610.9978369519647" y="336.0030138007593" as="geometry">
            <mxPoint x="-95" y="-125" as="offset" />
          </mxGeometry>
        </mxCell>
        <mxCell id="kCNPVURfCYWpfMIY_Az6-324" value="" style="endArrow=none;html=1;rounded=0;fontSize=12;startSize=8;endSize=8;curved=1;exitX=1.005;exitY=0.029;exitDx=0;exitDy=0;exitPerimeter=0;" edge="1" parent="WIyWlLk6GJQsqaUBKTNV-1" source="kCNPVURfCYWpfMIY_Az6-98">
          <mxGeometry width="50" height="50" relative="1" as="geometry">
            <mxPoint x="280" y="359" as="sourcePoint" />
            <mxPoint x="374" y="328" as="targetPoint" />
          </mxGeometry>
        </mxCell>
        <mxCell id="kCNPVURfCYWpfMIY_Az6-325" value="" style="endArrow=none;html=1;rounded=0;fontSize=12;startSize=8;endSize=8;curved=1;entryX=0.368;entryY=1.024;entryDx=0;entryDy=0;entryPerimeter=0;" edge="1" parent="WIyWlLk6GJQsqaUBKTNV-1" target="kCNPVURfCYWpfMIY_Az6-182">
          <mxGeometry width="50" height="50" relative="1" as="geometry">
            <mxPoint x="373" y="328" as="sourcePoint" />
            <mxPoint x="264" y="278" as="targetPoint" />
          </mxGeometry>
        </mxCell>
        <mxCell id="kCNPVURfCYWpfMIY_Az6-326" value="&lt;b&gt;X&lt;/b&gt;" style="edgeLabel;html=1;align=center;verticalAlign=middle;resizable=0;points=[];fontSize=16;" vertex="1" connectable="0" parent="kCNPVURfCYWpfMIY_Az6-325">
          <mxGeometry x="0.7339" relative="1" as="geometry">
            <mxPoint as="offset" />
          </mxGeometry>
        </mxCell>
      </root>
    </mxGraphModel>
  </diagram>
</mxfile>
